<?xml version="1.0" standalone="no"?><!DOCTYPE svg PUBLIC "-//W3C//DTD SVG 1.1//EN" "http://www.w3.org/Graphics/SVG/1.1/DTD/svg11.dtd"><svg class="icon" width="16px" height="16.00px" viewBox="0 0 1024 1024" version="1.1" xmlns="http://www.w3.org/2000/svg"><path fill="#333333" d="M128 213.333333l768 0q17.664 0 30.165333 12.501333t12.501333 30.165333-12.501333 30.165333-30.165333 12.501333l-768 0q-17.664 0-30.165333-12.501333t-12.501333-30.165333 12.501333-30.165333 30.165333-12.501333zM128 725.333333l768 0q17.664 0 30.165333 12.501333t12.501333 30.165333-12.501333 30.165333-30.165333 12.501333l-768 0q-17.664 0-30.165333-12.501333t-12.501333-30.165333 12.501333-30.165333 30.165333-12.501333zM128 469.333333l768 0q17.664 0 30.165333 12.501333t12.501333 30.165333-12.501333 30.165333-30.165333 12.501333l-768 0q-17.664 0-30.165333-12.501333t-12.501333-30.165333 12.501333-30.165333 30.165333-12.501333z" /></svg>