<?xml version="1.0" standalone="no"?><!DOCTYPE svg PUBLIC "-//W3C//DTD SVG 1.1//EN" "http://www.w3.org/Graphics/SVG/1.1/DTD/svg11.dtd"><svg class="icon" width="16px" height="16.00px" viewBox="0 0 1024 1024" version="1.1" xmlns="http://www.w3.org/2000/svg"><path fill="#333333" d="M421.8 685.4c-13.8 0-25-11.2-25-25V394.9c0-15.6 8.7-29.6 22.7-36.5s30.4-5.3 42.8 4.1l179.1 136.8c10.2 7.8 16.2 20.1 16 32.9-0.2 12.8-6.5 25-16.9 32.5l-118.2 85.4c-11.2 8.1-26.8 5.6-34.9-5.6-8.1-11.2-5.6-26.8 5.6-34.9l108.1-78.1-154.3-117.9v246.8c0 13.8-11.2 25-25 25z"  /><path fill="#333333" d="M709.2 956.8c-32.8 0-67.6-4.8-104-14.3-111-29-226.3-99.1-324.7-197.4-29.1-29.1-56-60-80-91.9-8.3-11-6.1-26.7 4.9-35s26.7-6.1 35 4.9c22.7 30.1 48.1 59.2 75.5 86.7 46.7 46.7 97.3 86.6 150.4 118.6 50.9 30.7 101.9 52.8 151.5 65.7 48.6 12.7 93.1 15.8 132.5 9.5 39.1-6.3 71.3-21.9 95.7-46.3 22.3-22.3 37.3-51.1 44.5-85.7 7.3-34.8 6.6-74.4-1.9-117.6-2.7-13.5 6.1-26.7 19.7-29.4 13.5-2.7 26.7 6.1 29.4 19.7 20.5 103.4 0.5 191.6-56.3 248.4-32 32-73.4 52.3-123.1 60.3-15.8 2.5-32.2 3.8-49.1 3.8zM781.2 407.2c-7.4 0-14.7-3.2-19.6-9.5a837.26 837.26 0 0 0-63.1-70.7c-46.7-46.7-97.3-86.6-150.4-118.6-50.9-30.7-101.9-52.8-151.5-65.7-48.6-12.7-93.1-15.9-132.5-9.5-39.1 6.3-71.3 21.9-95.7 46.3-21.5 21.5-36.2 49.2-43.7 82.2-7.5 33.2-7.7 71-0.5 112.3 2.4 13.6-6.7 26.6-20.3 28.9-13.6 2.4-26.6-6.7-28.9-20.3-8.4-47.8-8-92.2 1-131.9 9.6-42.4 28.8-78.2 57.1-106.5 32-32 73.4-52.3 123.1-60.3 46.3-7.5 97.8-4 153.1 10.5 111 29 226.3 99.1 324.7 197.4 23.8 23.8 46.4 49.1 66.9 74.9 8.6 10.8 6.8 26.5-4 35.1-4.8 3.6-10.2 5.4-15.7 5.4z"  /><path fill="#333333" d="M305 956.7c-70.2 0-129.7-21.8-172-64.1-32-32-52.3-73.4-60.3-123.1-7.5-46.3-4-97.8 10.5-153.1 29-111 99.1-226.3 197.4-324.7 26.9-26.9 55.5-52.1 85-74.8 10.9-8.4 26.6-6.4 35.1 4.6s6.4 26.6-4.6 35.1c-27.8 21.4-54.7 45.1-80.1 70.5-46.7 46.7-86.6 97.3-118.6 150.4-30.7 50.9-52.8 101.9-65.7 151.5-12.7 48.6-15.9 93.1-9.5 132.5 6.3 39.1 21.9 71.3 46.3 95.7 46.2 46.2 121.5 60.7 212 40.8 13.5-3 26.8 5.6 29.8 19 3 13.5-5.6 26.8-19 29.8-30.3 6.7-59.1 9.9-86.3 9.9zM614.6 839.3c-7.7 0-15.4-3.6-20.3-10.3-8.1-11.2-5.6-26.8 5.6-34.9 34.4-24.9 67.5-53.2 98.6-84.3 46.7-46.7 86.6-97.3 118.6-150.4 30.7-50.9 52.8-101.9 65.8-151.5 12.7-48.6 15.9-93.1 9.5-132.5-6.3-39.1-21.9-71.3-46.3-95.7-45.6-45.7-119.6-60.4-208.5-41.7-13.5 2.8-26.8-5.8-29.6-19.3-2.9-13.5 5.8-26.8 19.3-29.6 105.9-22.4 196.1-2.8 254 55.1 32 32 52.3 73.4 60.3 123.1 7.5 46.3 4 97.8-10.5 153.1-29 111-99.1 226.3-197.4 324.7-32.9 32.9-68.1 63-104.6 89.4-4.3 3.2-9.4 4.8-14.5 4.8z"  /></svg>